# xmcd
#
# Track frame offsets: 
#        150
#        17480
#        34667
#        55972
#        87315
#        115062
#        150572
#
# Disc length: 2238 seconds
#
# Revision: 4
# Processed by: cddbd v1.5.2PL0 Copyright (c) Steve Scherf et al.
# Submitted via: ExactAudioCopy v1.0b3
#
DISCID=4908bc07
DTITLE=Baker, Chet and Wolfgang Lackerschmid - Ballads For Two
DYEAR=1979
DGENRE=Jazz
TTITLE0=Blue bossa
TTITLE1=Five years ago
TTITLE2=Why shouldn't you cry
TTITLE3=Dessert
TTITLE4=Softly as in the morning sunrise
TTITLE5=You don't know what love is
TTITLE6=Waltz for Susan
EXTD=YEAR: 1979
EXTT0=
EXTT1=
EXTT2=
EXTT3=
EXTT4=
EXTT5=
EXTT6=
PLAYORDER=
